<svg xmlns="http://www.w3.org/2000/svg" width="28" height="28" viewBox="0 0 28 28">
    <defs>
        <filter id="a" width="111.7%" height="146.2%" x="-5.9%" y="-23.1%" filterUnits="objectBoundingBox">
            <feOffset in="SourceAlpha" result="shadowOffsetOuter1"/>
            <feGaussianBlur in="shadowOffsetOuter1" result="shadowBlurOuter1" stdDeviation="3"/>
            <feColorMatrix in="shadowBlurOuter1" result="shadowMatrixOuter1" values="0 0 0 0 0 0 0 0 0 0 0 0 0 0 0 0 0 0 0.2 0"/>
            <feMerge>
                <feMergeNode in="shadowMatrixOuter1"/>
                <feMergeNode in="SourceGraphic"/>
            </feMerge>
        </filter>
        <radialGradient id="b" cx="15.995%" cy="14.903%" r="40.888%" fx="15.995%" fy="14.903%" gradientTransform="matrix(1 0 0 .86298 0 .02)">
            <stop offset="0%" stop-color="#FFF"/>
            <stop offset="1.423%" stop-color="#FEFBFB"/>
            <stop offset="29.07%" stop-color="#EEAEB0"/>
            <stop offset="53.72%" stop-color="#E27175"/>
            <stop offset="74.49%" stop-color="#D9454A"/>
            <stop offset="90.56%" stop-color="#D32A30"/>
            <stop offset="100%" stop-color="#D12026"/>
        </radialGradient>
        <linearGradient id="c" x1="101.248%" x2="-7.292%" y1="102.938%" y2="-9.456%">
            <stop offset="0%" stop-color="#FFD886"/>
            <stop offset="8%" stop-color="#FFD886"/>
            <stop offset="49%" stop-color="#FFD454"/>
            <stop offset="100%" stop-color="#FFD20B"/>
        </linearGradient>
    </defs>
    <g fill="none" fill-rule="nonzero" filter="url(#a)" transform="translate(-8 -17)">
        <path fill="url(#b)" d="M11.366 4.342L7.918 6.376c-.887.362-.71 1.34-.71 1.34l-.015 7.396 1.85-1.047c-.963-3.63 2.322-4.246 2.322-4.246V6.923c.054-.91.71-.347.71-.347l4.566 2.612-.023-1.418c.023-1.179-.671-1.356-.671-1.356L12.445 4.35a.87.87 0 0 0-.524-.185c-.332-.007-.555.178-.555.178z" transform="translate(10 19)"/>
        <path fill="#AA1F00" d="M18.9 33.007c-.235-.936-.204-1.73.055-2.39a2.921 2.921 0 0 1 1.086-1.344 3.786 3.786 0 0 1 1.18-.543c.004-.001.01-.94.019-2.815.026-.45.204-.662.482-.635a.7.7 0 0 1 .281.1c.056.033.102.066.132.09l4.377 2.504-.02-1.21c.01-.494-.107-.831-.305-1.049a.767.767 0 0 0-.262-.188.407.407 0 0 0-.032-.01l-3.52-2.077c-.28-.205-.551-.205-.804-.084a.828.828 0 0 0-.129.077l-3.47 2.049a.976.976 0 0 0-.57.543 1.279 1.279 0 0 0-.076.67l-.012 7.214 1.587-.902zm2.576-7.088v2.999l-.096.018a3.272 3.272 0 0 0-.373.108c-.284.1-.567.24-.831.423-.451.313-.798.72-1 1.236-.249.632-.272 1.404-.025 2.331l.023.088-2.1 1.194.016-7.59a1.506 1.506 0 0 1 .092-.792c.122-.294.345-.526.683-.665l3.434-2.025a1.064 1.064 0 0 1 .169-.101.96.96 0 0 1 1.035.1l3.484 2.054c.029.01.068.026.114.051.09.049.179.117.261.208.24.264.377.659.366 1.207l.027 1.623-4.756-2.72a.865.865 0 0 0-.115-.081.48.48 0 0 0-.185-.07c-.123-.012-.203.083-.223.404z"/>
        <path fill="#D12236" d="M22.306 26.762l6.48 3.745s.948.339.824 1.286l.07 3.991s.115.647-.532.917L25.6 38.666s-.502.508-1.527-.108l-1.25-.694 4.55-2.604s.818-.277.047-.786l-2.545-1.463s1.087-3.136-2.569-4.138v-2.11z"/>
        <path fill="#AA1F00" d="M22.425 26.967v1.817c1.313.38 2.114 1.062 2.486 1.961.27.656.288 1.352.155 1.996-.016.08-.033.15-.05.214l2.463 1.417c.27.178.398.354.39.534-.006.148-.1.265-.241.359a1.027 1.027 0 0 1-.205.103l-4.359 2.495 1.066.591c.554.333.97.355 1.27.205a.595.595 0 0 0 .112-.073l3.584-1.992a.728.728 0 0 0 .395-.346.774.774 0 0 0 .075-.42l-.074-4.041a.991.991 0 0 0-.365-.938 1.441 1.441 0 0 0-.382-.23l-6.32-3.652zm2.306 6.097l.032-.092.022-.071c.017-.06.034-.13.05-.207.123-.603.108-1.252-.143-1.859-.35-.849-1.12-1.492-2.417-1.848l-.087-.023v-2.407l6.648 3.842a1.676 1.676 0 0 1 .444.27c.33.28.508.656.449 1.13l.069 3.975c.02.199-.002.393-.096.58a.956.956 0 0 1-.503.454l-3.53 1.954a.83.83 0 0 1-.163.108c-.372.188-.874.161-1.492-.21l-1.432-.794 4.743-2.714a.794.794 0 0 0 .172-.085c.086-.056.133-.116.136-.171.003-.08-.075-.188-.275-.32l-2.627-1.512z"/>
        <path fill="#D12236" d="M26.201 34.89l-6.517 3.676s-.771.647-1.527.061l-3.478-1.964s-.617-.232-.525-.925l.1-4.053s-.185-.693.864-1.255l1.234-.725-.061 5.24s-.178.847.647.439l2.553-1.449s2.152 2.527 4.875-.115l1.835 1.07z"/>
        <path fill="#AA1F00" d="M24.383 33.967c-.837.79-1.678 1.16-2.505 1.176-.66.011-1.27-.202-1.812-.565a3.807 3.807 0 0 1-.598-.494l-2.471 1.402c-.495.245-.781.113-.833-.25a.963.963 0 0 1 .008-.304l.06-5.019-1.054.619a2.297 2.297 0 0 0-.396.263c-.203.171-.325.35-.384.53a.693.693 0 0 0-.033.31l.008.036-.1 4.076c-.04.288.048.498.219.655a.843.843 0 0 0 .212.143l3.519 1.983.047.036c.362.257.747.239 1.118.05a1.44 1.44 0 0 0 .207-.13l6.369-3.595-1.58-.922zm-4.865-.183l.063.075.039.042a3.571 3.571 0 0 0 .577.48c.505.338 1.07.536 1.677.525.786-.014 1.593-.378 2.41-1.171l.064-.063 2.091 1.22-6.688 3.772a1.676 1.676 0 0 1-.255.16c-.443.226-.919.249-1.363-.068a1.472 1.472 0 0 1-.041-.03l-3.464-1.956a1.078 1.078 0 0 1-.296-.193.937.937 0 0 1-.296-.848l.1-4.032a.943.943 0 0 1 .038-.444c.072-.223.219-.44.456-.64.121-.101.264-.197.43-.286l1.413-.83-.064 5.46a.737.737 0 0 0-.01.246c.011.085.04.138.087.16.07.032.2.013.397-.084l2.635-1.495z"/>
        <path fill="url(#c)" d="M9.684 12.94c0 1.217.987 2.203 2.206 2.203a2.204 2.204 0 1 0 0-4.407 2.194 2.194 0 0 0-2.206 2.204z" transform="translate(10 19)"/>
        <path fill="#FF9F00" d="M21.89 34.281a2.343 2.343 0 1 1 2.344-2.341 2.343 2.343 0 0 1-2.344 2.341zm0-.276a2.067 2.067 0 1 0-2.068-2.065c0 1.14.926 2.065 2.068 2.065z"/>
    </g>
</svg>
