<svg xmlns="http://www.w3.org/2000/svg" xmlns:xlink="http://www.w3.org/1999/xlink" width="29" height="29" viewBox="0 0 29 29">
    <defs>
        <filter id="a" width="111.7%" height="146.2%" x="-5.9%" y="-23.1%" filterUnits="objectBoundingBox">
            <feOffset in="SourceAlpha" result="shadowOffsetOuter1"/>
            <feGaussianBlur in="shadowOffsetOuter1" result="shadowBlurOuter1" stdDeviation="3"/>
            <feColorMatrix in="shadowBlurOuter1" result="shadowMatrixOuter1" values="0 0 0 0 0 0 0 0 0 0 0 0 0 0 0 0 0 0 0.2 0"/>
            <feMerge>
                <feMergeNode in="shadowMatrixOuter1"/>
                <feMergeNode in="SourceGraphic"/>
            </feMerge>
        </filter>
        <path id="b" d="M.077.01h17.795v17.732H.078z"/>
    </defs>
    <g fill="none" fill-rule="evenodd" filter="url(#a)" transform="translate(-65 -17)">
        <g transform="translate(71 22.243)">
            <mask id="c" fill="#fff">
                <use xlink:href="#b"/>
            </mask>
            <path fill="#7CD0F5" d="M8.746.13c.056-.053.136-.17.219-.097.644.777 1.12 1.707 1.313 2.706.183-.075.343-.197.525-.277 1.18-.601 2.444-1.01 3.722-1.339.041-.01.083-.014.126-.02a12.215 12.215 0 0 1-.201 1.803 10.496 10.496 0 0 1-.614 2.154c-.037.094-.085.185-.101.287 1.428.03 2.82.45 4.124 1.015l.013.025c-.896 1.152-1.865 2.26-3.002 3.176-.14.12-.295.22-.431.343.873.745 1.487 1.758 1.906 2.824-1.301.558-2.651 1.028-4.053 1.24.046.399.063.802.031 1.204a7.006 7.006 0 0 1-.234 1.227c-.031.093-.043.195-.097.279-.76-.069-1.52-.17-2.262-.359-.23-.06-.462-.12-.684-.21-.049-.02-.101-.028-.153-.036-.22.452-.517.865-.868 1.224-.15.15-.294.307-.464.434-.044.024-.093-.001-.13-.026-.556-.367-1.107-.757-1.565-1.247-.063-.066-.124-.135-.193-.194-.446.312-.96.506-1.484.637-.06.014-.122.02-.184.024-.271-.444-.52-.905-.69-1.4-.051-.12-.063-.256-.134-.367a4.013 4.013 0 0 1-1.558-.17c-.08-.464-.08-.939-.06-1.407.017-.117.017-.238.052-.352.276.09.562.154.854.14.245.01.486-.029.728-.063-.106.608-.16 1.243.007 1.845.583-.057 1.08-.408 1.547-.74.177.613.428 1.213.818 1.719.04.05.098.12.167.078.29-.197.5-.486.687-.78.168-.246.284-.524.413-.792.55.564 1.188 1.059 1.916 1.362.05.022.103.027.157.035a3.08 3.08 0 0 0 .252-1.119 5.808 5.808 0 0 0-.065-1.204c1.036.254 2.118.417 3.18.249-.094-.621-.407-1.18-.772-1.677-.19-.27-.416-.512-.634-.76.58-.15 1.146-.353 1.7-.58a8.642 8.642 0 0 0 1.848-1.034c-.33-.321-.745-.54-1.161-.723a8.635 8.635 0 0 0-1.979-.554l.005-.048c.378-.367.75-.741 1.082-1.15.418-.502.815-1.027 1.115-1.61.08-.156.172-.308.223-.478-.33-.02-.659.01-.986.043-.501.055-.99.189-1.476.32-.466.135-.921.302-1.372.482.206-.625.348-1.27.436-1.922.038-.347.069-.698.032-1.047-.014-.156-.02-.316-.073-.466-.496.292-.973.62-1.398 1.012-.531.46-1.026.964-1.477 1.504-.106-.331-.186-.673-.337-.988-.207-.476-.457-.97-.89-1.273-.3.44-.55.916-.754 1.409-.205.494-.384 1-.51 1.521-.524-.422-1.137-.806-1.827-.814-.087.36-.11.734-.098 1.104.006.458.066.912.14 1.363-.566-.022-1.166.015-1.671.301-.062.023-.045.098-.037.148.136.53.429 1 .749 1.434.033.055.124.113.08.185-.481.278-.973.595-1.269 1.084.18.204.38.395.62.525.236.153.497.26.755.37-.339.471-.636 1-.724 1.583-.359-.14-.683-.36-.986-.595-.116-.087-.214-.198-.333-.28.124-.567.355-1.11.655-1.604-.103-.162-.232-.303-.326-.47-.221-.353-.4-.731-.548-1.12.082-.128.18-.244.284-.355.216-.227.43-.46.684-.644.101-.076.208-.145.31-.22-.002-.135-.04-.265-.062-.398-.113-.635-.121-1.284-.101-1.928.077-.026.15-.059.224-.093a4.103 4.103 0 0 1 1.642-.397c.193-1.021.577-1.992.983-2.943a4.44 4.44 0 0 1 1.488.412c.228.109.436.251.638.403.26-.352.515-.711.806-1.04.351-.431.747-.823 1.136-1.218.21-.203.416-.412.636-.605" mask="url(#c)"/>
        </g>
        <path fill="#02AAE8" d="M79.866 26.012c.425-.391.901-.72 1.398-1.012.052.15.06.31.073.466.036.349.006.7-.032 1.047a10.74 10.74 0 0 1-.436 1.922c.45-.18.906-.348 1.372-.482.486-.132.975-.265 1.476-.32a5.98 5.98 0 0 1 .986-.043c-.05.17-.143.321-.223.477-.3.584-.697 1.109-1.115 1.61-.332.41-.704.784-1.081 1.15l-.006.049c.68.096 1.342.3 1.979.554.416.183.83.402 1.16.723a8.608 8.608 0 0 1-1.848 1.033c-.553.228-1.12.43-1.699.581.218.248.444.489.634.76.365.497.678 1.056.773 1.676-1.062.168-2.145.006-3.18-.248.068.397.079.802.065 1.204-.01.386-.103.765-.253 1.119-.053-.008-.108-.013-.157-.035-.729-.303-1.365-.799-1.916-1.362-.13.268-.245.545-.413.792-.186.293-.397.583-.687.78-.07.041-.128-.03-.166-.079-.391-.505-.642-1.106-.819-1.717-.466.33-.963.681-1.547.739-.167-.602-.113-1.237-.007-1.845-.241.034-.483.074-.728.063-.292.014-.579-.05-.854-.14v-.007c.09-.583.386-1.11.725-1.582-.258-.11-.519-.218-.756-.37-.24-.13-.438-.322-.62-.525.297-.489.789-.806 1.27-1.084.044-.073-.048-.13-.08-.185-.32-.435-.613-.905-.749-1.434-.009-.05-.025-.125.037-.148.505-.286 1.105-.323 1.672-.301a9.039 9.039 0 0 1-.14-1.363 4.16 4.16 0 0 1 .097-1.104c.69.008 1.303.392 1.826.814.127-.52.306-1.027.511-1.521a7.82 7.82 0 0 1 .754-1.41c.433.304.683.798.89 1.274.151.315.231.656.337.988.452-.54.946-1.044 1.477-1.504"/>
        <path fill="#006FB8" d="M77.802 28.284c-.156.23-.31.46-.441.706-.138.213-.232.45-.354.672-.13-.214-.225-.449-.376-.65-.21-.302-.445-.59-.736-.817a7.156 7.156 0 0 0-.25 2.123.725.725 0 0 1-.148-.064 3.33 3.33 0 0 0-1.231-.394.445.445 0 0 0-.148 0c.06.188.095.381.16.566.114.374.282.728.477 1.065-.4.021-.792.117-1.167.257-.102.046-.214.074-.3.15.239.256.488.509.786.696.122.086.258.15.38.236a4.7 4.7 0 0 0-1.105 1.036c.038.021.077.043.12.054.272.071.548.138.83.147.15.003.3 0 .45-.002-.087.2-.203.387-.279.593-.105.286-.228.575-.255.88.387-.063.757-.209 1.1-.4.087-.052.17-.108.264-.148-.014.404-.012.812.073 1.209.031.144.045.294.106.43.121-.1.236-.208.344-.322.277-.264.489-.589.679-.92.078.08.109.19.163.283.228.424.511.819.847 1.162.045.048.075-.034.087-.067.18-.525.309-1.076.29-1.634l.033-.034c.571.39 1.215.659 1.877.847.008-.141-.038-.277-.069-.412a5.415 5.415 0 0 0-.366-1.012c-.076-.164-.181-.312-.255-.476.823.054 1.65-.066 2.448-.268a.156.156 0 0 0-.05-.078 5.504 5.504 0 0 0-1.793-1.193c.02-.057.078-.076.125-.103a8.95 8.95 0 0 0 1.821-1.268c.104-.084.218-.16.297-.27a7.572 7.572 0 0 0-1.814-.076c-.254.008-.502.068-.755.086.046-.1.113-.188.176-.278.154-.235.302-.476.42-.733.169-.305.313-.625.439-.951.049-.155.13-.3.149-.464-.35.156-.7.315-1.033.506-.452.262-.898.54-1.292.887-.013-.123.008-.246.02-.368a6.433 6.433 0 0 0-.118-1.743c-.012-.066-.023-.133-.06-.19-.204.236-.374.498-.566.744"/>
        <path fill="#006FB8" d="M77.802 28.284c.192-.246.363-.508.567-.744.036.057.047.124.059.19.122.571.155 1.16.119 1.743-.013.122-.034.245-.02.368.393-.347.84-.625 1.291-.887.333-.191.683-.35 1.033-.506-.019.163-.1.31-.149.464-.126.326-.27.646-.439.951a5.648 5.648 0 0 1-.42.733c-.063.09-.13.178-.176.278.253-.018.501-.078.755-.086a7.572 7.572 0 0 1 1.814.076c-.08.11-.193.186-.297.27a8.95 8.95 0 0 1-1.821 1.268c-.047.027-.105.046-.125.103.67.267 1.276.687 1.793 1.193.025.02.04.048.05.078-.798.202-1.625.322-2.448.268.074.164.179.312.255.476.15.326.284.662.366 1.012.03.135.077.27.069.412-.662-.188-1.306-.457-1.877-.847l-.033.034c.019.558-.11 1.11-.29 1.634-.012.033-.042.115-.087.067a5.137 5.137 0 0 1-.847-1.162c-.054-.094-.085-.204-.163-.282-.19.33-.402.655-.679.919a3.79 3.79 0 0 1-.344.322c-.061-.136-.075-.286-.106-.43-.085-.397-.087-.805-.073-1.21-.093.04-.177.097-.264.15a3.44 3.44 0 0 1-1.1.4c.027-.306.15-.595.255-.881.076-.206.192-.392.279-.593-.15.001-.3.005-.45.002-.282-.009-.558-.076-.83-.147-.043-.01-.082-.033-.12-.054a4.7 4.7 0 0 1 1.106-1.036c-.123-.086-.259-.15-.381-.236-.298-.187-.547-.44-.785-.697.085-.075.197-.103.299-.15.374-.14.767-.235 1.167-.256a5.087 5.087 0 0 1-.476-1.065c-.066-.185-.101-.378-.16-.565a.443.443 0 0 1 .147-.001c.43.052.852.18 1.231.394a.725.725 0 0 0 .148.064 7.156 7.156 0 0 1 .25-2.123c.29.227.526.515.736.816.15.202.247.437.376.651.122-.222.216-.459.354-.672a7.77 7.77 0 0 1 .44-.706"/>
        <path fill="#FFF" d="M76.586 31.292a3.005 3.005 0 0 0-.686-.76c-.078-.055-.146-.13-.24-.157.02.402.096.803.243 1.177a.662.662 0 0 0 .09.18l-.074-.013a2.55 2.55 0 0 0-1.136-.213c.21.339.484.648.822.86l.014.043c-.404.05-.79.207-1.135.422.36.16.747.273 1.143.27a.44.44 0 0 1-.05.053c-.315.245-.58.553-.791.893.41-.028.808-.166 1.168-.364-.2.39-.325.824-.352 1.263.356-.243.672-.556.9-.928.01.448.11.891.283 1.303l.037-.022c.193-.404.339-.837.37-1.287.24.41.581.76.968 1.032a3.351 3.351 0 0 0-.312-1.39c.468.225.98.348 1.497.377a3.347 3.347 0 0 0-1.078-1.053c.567-.049 1.117-.23 1.627-.476l.005-.027a3.989 3.989 0 0 0-1.581-.283c.51-.34.928-.799 1.302-1.281-.47.077-.926.24-1.351.455-.104.048-.195.12-.303.157a4.621 4.621 0 0 0 .52-1.64c-.452.375-.853.819-1.162 1.323-.015-.509-.108-1.02-.32-1.485a4.97 4.97 0 0 0-.418 1.57"/>
    </g>
</svg>
