<?xml version="1.0" encoding="iso-8859-1"?>
<!-- Generator: Adobe Illustrator 16.0.0, SVG Export Plug-In . SVG Version: 6.00 Build 0)  -->
<!DOCTYPE svg PUBLIC "-//W3C//DTD SVG 1.1//EN" "http://www.w3.org/Graphics/SVG/1.1/DTD/svg11.dtd">
<svg version="1.1" id="Capa_1" xmlns="http://www.w3.org/2000/svg" xmlns:xlink="http://www.w3.org/1999/xlink" x="0px" y="0px"
	 width="78.943px" height="78.943px" viewBox="0 0 78.943 78.943" style="enable-background:new 0 0 78.943 78.943;"
	 xml:space="preserve">
<g>
	<path d="M9.105,40.813L33.907,60.22l15.97-20.416l-0.516-1.765c-0.44-1.493-0.235-3.058,0.565-4.303
		c0.812-1.24,2.14-2.076,3.675-2.294l1.031-0.143c0.62-0.091,1.243-0.058,1.859,0.042l9.343-11.94L41.035,0L9.105,40.813z
		 M46.638,37.279c-3.962,5.064-11.277,5.954-16.337,1.995c-5.065-3.958-5.961-11.273-1.997-16.337
		c3.963-5.068,11.279-5.958,16.338-1.997C49.703,24.9,50.603,32.218,46.638,37.279z M22.076,70.458h24.726l-0.031,8.485H22.03
		L22.076,70.458z M49.886,67.333c-2.219,0.798-5.808,1.419-8.166,1.419H27.121c-3.032,0-5.501-2.471-5.501-5.507V52.683
		c1.045,0.826,2.093,1.666,3.147,2.489v8.067c0,1.303,1.056,2.361,2.358,2.361h14.599c1.989,0,5.239-0.559,7.107-1.229l16.306-5.835
		c0.593-0.217,1.062-0.639,1.327-1.216c0.265-0.565,0.297-1.207,0.082-1.795l-6.296-17.317c-0.488-1.331-2.14-2.322-3.545-2.122
		l-0.98,0.138c-0.582,0.082-1.052,0.365-1.327,0.802c-0.278,0.432-0.341,0.976-0.174,1.534l2.819,9.635l1.771,5.791h-5.981H50.21
		l1.578-3.147h1.045c0.34,0,0.808-0.073,1.072-0.438c0.232-0.314,0.273-0.784,0.118-1.318l-2.819-9.642
		c-0.419-1.427-0.224-2.936,0.546-4.132c0.772-1.186,2.055-1.994,3.528-2.198l0.995-0.143c2.883-0.411,5.935,1.419,6.932,4.161
		l6.298,17.324c0.507,1.382,0.436,2.869-0.191,4.206C68.685,59.992,67.58,61,66.2,61.498L49.886,67.333z M32.9,25.68
		c-0.796,1.014-1.009,2.163-0.644,3.444c0.198,0.706,0.606,1.418,1.224,2.152l3.622-4.631l0.909,1.269l-3.481,4.448
		c0.267,0.243,0.563,0.479,0.884,0.729c0.143,0.109,0.277,0.219,0.416,0.32l3.768-4.817l0.911,1.27l-3.399,4.347
		c0.827,0.434,1.64,0.688,2.438,0.766c1.322,0.132,2.42-0.356,3.292-1.469c0.8-1.024,0.944-2.173,0.429-3.437
		c-0.27-0.671-0.753-1.395-1.448-2.157l1.058-1.347c1.187,1.119,1.95,2.369,2.288,3.729c0.411,1.632,0.078,3.139-1.004,4.517
		c-0.926,1.187-2.142,1.852-3.629,1.99c-1.411,0.136-2.917-0.252-4.527-1.172l-1.633,2.093l-0.913-1.269l1.276-1.627
		c-0.236-0.162-0.479-0.341-0.717-0.53c-0.198-0.155-0.404-0.327-0.595-0.505l-1.547,1.983l-0.909-1.268l1.379-1.761
		c-0.862-0.987-1.47-2.016-1.807-3.111c-0.574-1.848-0.268-3.53,0.925-5.05c1.014-1.299,2.201-1.983,3.577-2.062
		c1.38-0.082,2.612,0.243,3.709,0.977l-1.056,1.348c-0.905-0.458-1.768-0.641-2.585-0.541C34.285,24.399,33.547,24.849,32.9,25.68z"
		/>
</g>
<g>
</g>
<g>
</g>
<g>
</g>
<g>
</g>
<g>
</g>
<g>
</g>
<g>
</g>
<g>
</g>
<g>
</g>
<g>
</g>
<g>
</g>
<g>
</g>
<g>
</g>
<g>
</g>
<g>
</g>
</svg>
