<svg xmlns="http://www.w3.org/2000/svg" width="45" height="100" viewBox="0 0 45 100">
            <path
              fill="#b7b9bd"
              fill-opacity="1"
              d="M0,32L26.7,42.7C53.3,53,107,75,160,85.3C213.3,96,267,96,320,101.3C373.3,107,427,117,480,106.7C533.3,96,587,64,640,53.3C693.3,43,747,53,800,69.3C853.3,85,907,107,960,117.3C1013.3,128,1067,128,1120,106.7C1173.3,85,1227,43,1280,32C1333.3,21,1387,43,1413,53.3L1440,64L1440,320L1413.3,320C1386.7,320,1333,320,1280,320C1226.7,320,1173,320,1120,320C1066.7,320,1013,320,960,320C906.7,320,853,320,800,320C746.7,320,693,320,640,320C586.7,320,533,320,480,320C426.7,320,373,320,320,320C266.7,320,213,320,160,320C106.7,320,53,320,27,320L0,320Z"
            ></path>
          </svg>