<svg xmlns="http://www.w3.org/2000/svg" version="1.1" xmlns:xlink="http://www.w3.org/1999/xlink" xmlns:svgjs="http://svgjs.com/svgjs" width="1440" height="560" preserveAspectRatio="none" viewBox="0 0 1440 560">
  <g mask="url(&quot;#SvgjsMask2516&quot;)" fill="none">
    <use xlink:href="#SvgjsG2529" transform="translate(0, 0)" fill="rgba(0, 0, 0, 1)"></use>
    <use xlink:href="#SvgjsG2529" transform="translate(0, 473.00000000000006)" fill="rgba(0, 0, 0, 1)"></use>
    <use xlink:href="#SvgjsG2529" transform="translate(473.00000000000006, 0)" fill="rgba(0, 0, 0, 1)"></use>
    <use xlink:href="#SvgjsG2529" transform="translate(473.00000000000006, 473.00000000000006)" fill="rgba(0, 0, 0, 1)"></use>
    <use xlink:href="#SvgjsG2529" transform="translate(946.0000000000001, 0)" fill="rgba(0, 0, 0, 1)"></use>
    <use xlink:href="#SvgjsG2529" transform="translate(946.0000000000001, 473.00000000000006)" fill="rgba(0, 0, 0, 1)"></use>
    <use xlink:href="#SvgjsG2529" transform="translate(1419.0000000000002, 0)" fill="rgba(0, 0, 0, 1)"></use>
    <use xlink:href="#SvgjsG2529" transform="translate(1419.0000000000002, 473.00000000000006)" fill="rgba(0, 0, 0, 1)"></use>
  </g>
  <defs>
    <mask id="SvgjsMask2516">
      <rect width="1440" height="560" fill="#ffffff"></rect>
    </mask>
    <g id="SvgjsG2525">
      <path d="M2.42 12.99C-0.54 9.93-0.45 5.04 2.61 2.08 5.67-0.87 10.56-0.79 13.52 2.27S16.39 10.23 13.33 13.18c-3.06 2.96-7.96 2.87-10.91-0.19z m1.37-1.32c2.22 2.3 5.91 2.37 8.21 0.14 2.3-2.22 2.36-5.91 0.15-8.21-2.22-2.3-5.91-2.36-8.21-0.14-2.31 2.23-2.37 5.91-0.15 8.21z"></path>
      <path d="M7.26 8.37a0.57 0.57 0 0 1-0.35-0.43 0.58 0.58 0 0 1 0.1-0.46L10.23 4.36a0.58 0.58 0 0 1 0.81 0.83l-2.5 2.42 3.07 1.17a0.58 0.58 0 0 1 0.34 0.74c-0.11 0.3-0.45 0.45-0.75 0.34l-3.94-1.49z"></path>
    </g>
    <g id="SvgjsG2522">
      <path
        d="M14.21 2.91C12.3 0.93 9.04 0.54 7.04 1.75 6.59 2.01 5.55 2.84 5.55 2.84L2.37 4.15A0.47 0.47 0 0 0 2.21 4.25a0.49 0.49 0 0 0-0.01 0.69l0.56 0.59-1.22 1.18c-0.95 0.92-0.98 2.43-0.06 3.38l0.66 0.69L0.81 12.07l2.45 2.54 0.6-0.58 1 1.04L4.26 15.64l1.05 1.09L9.01 13.15c1.78 0.24 3.65-0.3 5.05-1.65C16.47 9.17 16.54 5.33 14.21 2.91zM5.72 4.75a0.68 0.68 0 0 1 0.01-0.96c0.27-0.26 0.7-0.25 0.97 0.02a0.68 0.68 0 0 1-0.02 0.96c-0.27 0.26-0.7 0.25-0.96-0.02z m0.53 6.97l1 1.04-0.56 0.54-1-1.03 0.56-0.55z m0.8-0.77l1 1.04-0.56 0.54-1-1.04L7.05 10.95z m-1.6 1.54l1 1.04-0.56 0.54-1-1.04 0.56-0.54z m-0.8 0.77l1 1.04-0.56 0.54-1-1.03L4.65 13.26z m3.19-3.07l1.01 1.04c-0.04 0.04-0.09 0.07-0.13 0.11l-0.44 0.42-1-1.03L7.84 10.18z m6-0.25a1.56 1.56 0 0 1-1.07 0.43c-0.46 0.38-1.08 0.46-1.6 0.24l0 0c-0.71-0.2-1.43-0.03-2.06 0.41L8.7 10.6l1.27-1.23c0.4-0.38 0.77-0.5 1.18-0.39a1.91 1.91 0 0 0 0.43 0.08 1.23 1.23 0 0 1 0.06 0.86c-0.02 0.06 0 0.12 0.04 0.16 0.02 0.02 0.04 0.03 0.07 0.04a0.16 0.16 0 0 0 0.21-0.11l0 0a1.56 1.56 0 0 0-0.03-0.97c0.27-0.05 0.53-0.18 0.76-0.42 0 0 0 0 0.01 0 0.11-0.1 0.2-0.22 0.26-0.35a1.57 1.57 0 0 0 0.96 0.29 0.16 0.16 0 0 0 0.16-0.17 0.16 0.16 0 0 0-0.17-0.16 1.25 1.25 0 0 1-0.81-0.26c0.15-0.48 0.07-1.02-0.25-1.44a1.24 1.24 0 0 1 0.76-0.25 0.17 0.17 0 0 0 0.17-0.16 0.17 0.17 0 0 0-0.16-0.17 1.57 1.57 0 0 0-0.99 0.33 1.24 1.24 0 0 1 0.14-1.64c0.06-0.06 0.07-0.17 0-0.24-0.06-0.07-0.17-0.07-0.23 0-0.08 0.07-0.14 0.15-0.21 0.24a1.24 1.24 0 0 1-1.02-0.73s0 0 0-0.01a1.23 1.23 0 0 1-0.11-0.52c0-0.09-0.07-0.17-0.16-0.17-0.09 0-0.17 0.07-0.17 0.16a1.59 1.59 0 0 0 0.09 0.55c-0.32 0.26-0.74 0.34-1.11 0.23a1.58 1.58 0 0 0-0.13-1.05 0.17 0.17 0 0 0-0.22-0.07c-0.08 0.04-0.11 0.14-0.07 0.22a1.25 1.25 0 0 1 0.11 0.77 1.22 1.22 0 0 1-0.25-0.2l-0.02-0.02a1.57 1.57 0 0 0-1.08-0.48 0.16 0.16 0 0 0-0.17 0.16 0.16 0.16 0 0 0 0.16 0.17 1.24 1.24 0 0 1 0.85 0.38l0.02 0.01c0.55 0.57 1.43 0.63 2.06 0.18 0.06 0.1 0.13 0.19 0.21 0.27A1.57 1.57 0 0 0 12.17 4.95a1.56 1.56 0 0 0-0.11 0.72 1.56 1.56 0 0 0-0.82 0.33 1.62 1.62 0 0 0-0.17-0.2 1.56 1.56 0 0 0-0.64-0.4c-0.09-0.03-0.18 0.02-0.21 0.11-0.02 0.06 0 0.12 0.04 0.16a0.14 0.14 0 0 0 0.07 0.04 1.25 1.25 0 0 1 0.51 0.32c0.06 0.06 0.11 0.13 0.15 0.2a1.58 1.58 0 0 0-0.36 0.95c0 0.05 0.02 0.09 0.04 0.12 0.03 0.03 0.07 0.05 0.12 0.05 0.09 0 0.17-0.07 0.17-0.16l0 0a1.25 1.25 0 0 1 0.35-0.82c0 0 0.01 0 0.01-0.01l0.02-0.01a1.24 1.24 0 0 1 0.79-0.35 1.57 1.57 0 0 0 0.36 0.62s0 0 0.01 0l0 0a1.24 1.24 0 0 1-0.03 1.76 1.57 1.57 0 0 0-0.24-0.33c-0.14-0.14-0.3-0.26-0.49-0.34a0.16 0.16 0 0 0-0.22 0.08c-0.04 0.08 0 0.18 0.08 0.22a1.25 1.25 0 0 1 0.39 0.27c0.09 0.09 0.16 0.19 0.21 0.3a0.95 0.95 0 0 1-0.5 0.15 0.14 0.14 0 0 0-0.04 0c-0.13 0-0.27-0.03-0.42-0.07-0.53-0.15-1.05 0.04-1.5 0.47L8.47 10.36l-0.39-0.41L9.29 8.79c0.44-0.43 0.6-1.11 0.4-1.61-0.1-0.23-0.16-0.51-0.13-0.77a1.56 1.56 0 0 1-0.81-0.44 1.55 1.55 0 0 1-0.41-0.82 1.58 1.58 0 0 1-0.8-0.45c-0.61-0.64-0.59-1.64 0.04-2.25 0.47-0.46 1.16-0.56 1.73-0.33 0.61-0.38 1.42-0.29 1.95 0.25 0.03 0.03 0.05 0.06 0.07 0.08a1.57 1.57 0 0 1 1.39 0.46c0.18 0.19 0.31 0.42 0.38 0.66a1.56 1.56 0 0 1 1.22 1.49 1.55 1.55 0 0 1 0.29 0.24c0.44 0.46 0.55 1.11 0.32 1.66 0.31 0.6 0.2 1.35-0.3 1.84a1.58 1.58 0 0 1-0.33 0.24 1.56 1.56 0 0 1-0.46 0.89z"></path>
    </g>
    <g id="SvgjsG2526">
      <path d="M0.9 6.68a1.05 1.05 0 1 1 1.51-1.46 1.05 1.05 0 0 1-1.51 1.46zM-3.31 7.8L-1.83 6.37c0.53-0.52 1.39-0.49 1.9 0.04l1.01 1.04c0.52 0.53 0.54 1.43 0.01 1.95L-0.39 10.83-3.31 7.8z m11.83 6.65a1.05 1.05 0 0 0 1.49 0.02 1.05 1.05 0 0 0-1.46-1.51 1.05 1.05 0 0 0-0.03 1.49zM7.19 18.67L8.67 17.25c0.53-0.52 0.54-1.37 0.02-1.91l-1-1.04c-0.52-0.54-1.41-0.59-1.95-0.08L4.26 15.65l2.93 3.02z"></path>
      <path d="M4.7 9.09a1.06 1.05 46 1 0 1.48 1.53 1.06 1.05 46 1 0-1.48-1.53"></path>
      <path d="M0.16 11.4l2.22-0.98c1.07-0.57 1.72 0.16 1.72 0.16l0.57 0.59s0.7 0.68 0.1 1.73L3.72 15.08l-3.56-3.68z m6.99-3.2l1.79-1.73 0.01-0.58-1.79 1.73L2.82 3.11 8.51-2.39l4.35 4.5L9.93 4.94l-0.01 0.59L13.45 2.12 8.53-2.97l-6.3 6.08z"></path>
      <path d="M9.42 1a0.56 0.56 0 0 0 0.79 0.02 0.56 0.56 0 0 0 0.01-0.79 0.56 0.56 0 0 0-0.78-0.02 0.56 0.56 0 0 0-0.02 0.79z m-0.39 2.94l0.8-1.41c0.31-0.55-0.06-0.91-0.06-0.91L8.81 0.63s-0.34-0.38-0.9-0.09l-1.44 0.75a0.24 0.24 0 0 0 0.22 0.42l1.38-0.72v0l0.13 0.14L6.98 2.31l-2.43 1.28a0.33 0.33 0 0 0-0.08 0.51c0.1 0.1 0.26 0.13 0.38 0.07l2.41-1.27 0.18 0.2-1.34 2.35a0.33 0.33 0 0 0 0.12 0.45 0.33 0.33 0 0 0 0.44-0.12l1.37-2.39 1.22-1.18 0.13 0.14 0 0-0.76 1.35a0.24 0.24 0 0 0 0.41 0.24z m5.17 5.02a1.05 1.05 0 0 1 0.03-1.49c0.42-0.4 1.08-0.39 1.48 0.03a1.05 1.05 0 0 1-0.03 1.48 1.05 1.05 0 0 1-1.48-0.03z m-1.12 1.08s0.15 0.21 0.42 0.17c0.24-0.04 0.72-0.48 0.8-0.57L13.52 8.83c-0.34 0.32-0.55 0.6-0.6 0.8-0.05 0.2 0.16 0.4 0.16 0.41z"></path>
      <path d="M9.24 7.39c-0.07 0.02-0.21 0.06-0.26 0.12a0.44 0.44 0 0 0-0.01 0.63l1.01 1.04c0.11 0.12 0.31 0.23 0.47 0.2 0.55-0.1 1.13-0.2 1.31-0.23l-1.98 1.91 2.54 2.64L14.35 11.74c0.53-0.51 0.61-1.39 0.14-1.88-0.25 0.24-0.69 0.61-1.02 0.64-0.33 0.03-0.49-0.17-0.49-0.17l-0.77 0.74a0.36 0.36 0 0 1-0.6 0.39 0.36 0.36 0 0 1 0.01-0.52 0.36 0.36 0 0 1 0.4-0.07l0.77-0.75s-0.16-0.14-0.16-0.43c0.02-0.4 0.59-0.97 0.69-1.06l-0.05-0.05a1.34 1.34 0 0 0-1.2-0.39l-1.55 0.29-0.92-0.95L9.65 4.89a0.18 0.18 0 0 0-0.18-0.18 0.18 0.18 0 0 0-0.18 0.17l-0.05 2.51z"></path>
    </g>
    <g id="SvgjsG2521">
      <path d="M12.57 11.72c0.93 0.97 0.91 2.1 0.03 2.95l-4.12 3.99c-0.32 0.31-0.61 0.53-0.61 0.53L3.61 14.78 7.62 10.9l-0.18-0.18-2.01 0.36c-0.31 0.04-0.66-0.14-0.87-0.36L2.7 8.8a0.8 0.8 0 0 1 0.02-1.14c0.32-0.31 0.82-0.29 1.13 0.03l1.69 1.75L8.55 8.88c0.73-0.14 1.46 0.2 1.93 0.69-1.29 1.25-1.53 2.1-0.97 2.67l-2.14 2.08a0.64 0.64 0 0 0-0.69 0.13 0.63 0.63 0 0 0-0.02 0.89c0.25 0.25 0.65 0.26 0.9 0.01 0.19-0.18 0.24-0.46 0.16-0.68L9.86 12.59c0.56 0.58 1.42 0.38 2.71-0.87"></path>
      <path d="M12.22 11.36c-1.33 1.27-1.73 1.21-2.19 0.73-0.46-0.48-0.51-0.88 0.8-2.17l1.39 1.44z m2.28-3.61c0.7 0.73 0.68 1.89-0.04 2.6-0.73 0.7-1.89 0.68-2.6-0.05-0.7-0.73-0.68-1.89 0.04-2.59S13.8 7.02 14.5 7.75m-3.31-3.07c0.16 0.16 0.41 0.17 0.57 0.01s0.17-0.41 0.01-0.57a0.41 0.41 0 0 0-0.58 0.56M10.78 1.04a0.58 0.58 0 0 0 0.82 0.01c0.23-0.22 0.24-0.59 0.01-0.82a0.58 0.58 0 0 0-0.82-0.01c-0.23 0.22-0.24 0.59-0.01 0.82m-2.19-2.26c0.23 0.23 0.6 0.24 0.83 0.01 0.23-0.22 0.24-0.59 0.01-0.82C9.21-2.27 8.84-2.28 8.6-2.05c-0.23 0.22-0.24 0.59-0.01 0.83"></path>
      <path
        d="M8.28 6.72a0.24 0.24 0 0 0-0.01 0.34c0.09 0.09 0.24 0.1 0.34 0.01l1.03-0.99 0.13 0.13-1.03 0.99c-0.09 0.09-0.1 0.24-0.01 0.34s0.24 0.1 0.34 0.01L10.99 5.69l0.13 0.14-0.65 0.62a0.18 0.18 0 0 0-0.01 0.25 0.18 0.18 0 0 0 0.25 0.01l0.74-0.72c0.21-0.2 0.2-0.54 0-0.75 0 0-0.77-0.79-0.77-0.79l-0.22-0.28 0.83-1.44c0.34-0.58-0.05-0.95-0.05-0.96l-1.04-1.07s-0.36-0.4-0.95-0.09l-0.77 0.41 0.44-0.75c0.34-0.58-0.05-0.95-0.06-0.96l-0.8-0.82s-0.36-0.4-0.95-0.09L5.63-0.81c-0.14 0.07-0.19 0.22-0.13 0.34 0.07 0.12 0.23 0.16 0.34 0.1l1.45-0.76 0.15 0.15-2.41 1.42L5.43 0.86l-1.39 1.34a0.29 0.29 0 0 0-0.01 0.41c0.11 0.12 0.29 0.12 0.41 0.01l1.39-1.35 0.17 0.18-1.39 1.35a0.29 0.29 0 0 0 0.4 0.41l1.39-1.34 0.4 0.41L8.31-0.08l0.15 0.16-0.82 1.41c-0.05 0.09-0.05 0.22 0.04 0.3 0.07 0.09 0.21 0.11 0.3 0.06l1.45-0.77 0.14 0.15-3.31 3.19a0.34 0.34 0 0 0-0.01 0.49c0.13 0.13 0.35 0.14 0.48 0L8.62 3.1l0.17 0.18-1.88 1.81a0.34 0.34 0 0 0 0.47 0.5L10.69 2.39l0.15 0.16-0.8 1.35c-0.05 0.08-0.05 0.21 0 0.31l0.29 0.53L8.28 6.73z"></path>
    </g>
    <g id="SvgjsG2519">
      <path d="M10.6 2.34a2.2 2.2 0 1 0 3.05 3.16 2.2 2.2 0 1 0-3.05-3.16"></path>
      <path d="M8.15 3.94C7.07 2.82 5.2 2.7 4.08 3.78l-4.9 4.73c-0.38 0.37-0.4 0.97-0.04 1.36a0.96 0.96 0 0 0 1.36 0.02l4.43-4.27 0.55 0.57L0.13 11.36 4.29 15.68 9.65 10.5l0.56 0.58-4.43 4.27c-0.38 0.37-0.39 0.98-0.02 1.37s0.97 0.38 1.35 0.01L12.02 11.99c1.12-1.08 1.14-2.87 0.06-3.99L8.15 3.94z"></path>
    </g>
    <g id="SvgjsG2517">
      <path d="M-0.4 8.88l-0.82-0.85C-1.79 7.44-1.91 6.45-1.16 5.72c0 0 5.37-5.19 5.39-5.2 0.67-0.64 1.71-0.58 2.29 0.02l0.83 0.86-7.75 7.48z m12.91-2.11L13.62 5.69c0.4-0.38 0.32-0.99-0.1-1.42 0 0-1.6-1.66-1.6-1.65-0.41-0.43-1.02-0.55-1.42-0.16l-1.11 1.08L7.89 1.98l-7.75 7.49 6.13 6.34L14.02 8.33l-1.51-1.56z m-0.56-0.59L9.94 4.11l1.15-1.11 2 2.08-1.14 1.1z m-5.12 10.19l0.83 0.85c0.57 0.58 1.55 0.74 2.3 0.01 0 0 5.38-5.19 5.39-5.2 0.67-0.64 0.64-1.69 0.06-2.29l-0.83-0.85-7.74 7.48z"></path>
    </g>
    <g id="SvgjsG2520">
      <path d="M13.84 13.24l0.04-1.83L8.64 5.99C9.01 4.73 8.72 3.33 7.75 2.33 6.32 0.84 3.93 0.81 2.43 2.26c-1.5 1.46-1.55 3.84-0.12 5.33 0.96 1 2.35 1.33 3.62 1.01l1.05 1.09 1.7 0.03-0.02 1.3 1.25 0.02-0.02 1.28 1.3 0.02-0.03 1.3 2.22 0.04c0.33 0 0.45-0.11 0.46-0.44zM3.18 4.46c-0.38-0.4-0.37-1.03 0.04-1.41 0.4-0.39 1.03-0.38 1.41 0.02 0.38 0.39 0.37 1.02-0.03 1.41-0.4 0.38-1.03 0.37-1.42-0.02z"></path>
    </g>
    <g id="SvgjsG2528">
      <path d="M5.07 7.98l1.11 4.45-0.76 0.19L4.31 8.17z"></path>
      <path d="M7.3 16.44c1.58 0.07 3.18-0.46 4.39-1.64 1.51-1.45 2.1-3.56 1.68-5.52l3.71-0.93-0.08-0.33L17.92 7.78 17.57 6.4 16.65 6.63l-0.08-0.36-9.14 2.28 0.11 0.46-1.13 0.28 0.29 1.16 1.13-0.28 0.12 0.46 3.84-0.96c0.29 1.41-0.15 2.91-1.23 3.96-1.71 1.65-4.44 1.6-6.08-0.11L2.07 11.02 0.89 12.16l6.79 7.02L8.85 18.05 7.3 16.44zM10.29 1.5L11.22 0.6l0.11 0.12 0.22-0.22-1.01-1.04-0.22 0.21 0.12 0.13-0.93 0.89L8.76-0.08 9.69-0.98l0.11 0.11 0.22-0.22L9.01-2.13l-0.22 0.22 0.12 0.12-0.93 0.9L6.88-2.04l-4.67 4.51 4.51 4.67L11.38 2.63l-1.09-1.13z m-3.55 4.86L2.99 2.48 6.86-1.26l0.72 0.75-2.97 2.88c-0.23 0.22-0.23 0.58-0.02 0.8 0.22 0.22 0.57 0.22 0.8 0L8.36 0.3l0.76 0.78-2.98 2.87c-0.23 0.22-0.23 0.58-0.02 0.8 0.22 0.22 0.57 0.22 0.8 0.01L9.89 1.88l0.72 0.74-3.87 3.74z"></path>
    </g>
    <g id="SvgjsG2527">
      <path d="M2.87 1.84L19.31 8.2 2.65 13.97l5.28-5.97z"></path>
    </g>
    <g id="SvgjsG2524">
      <path d="M13.81 2.48c-2.3-2.38-6.08-2.44-8.46-0.15-4.02 3.88-3.08 11.29-3.07 11.29s7.37 1.2 11.39-2.68c2.38-2.3 2.44-6.08 0.14-8.46z m-6.2 5.99c-1.01-1.05-0.99-2.72 0.06-3.74S10.4 3.75 11.41 4.8s0.99 2.72-0.06 3.74S8.62 9.52 7.61 8.47z"></path>
    </g>
    <g id="SvgjsG2523">
      <path d="M11.79 10.44a3.46 3.46 0 1 0-4.98 4.82 3.46 3.46 0 0 0 4.98-4.82z m-3.8 3.67a1.82 1.82 0 1 1 2.62-2.52 1.82 1.82 0 0 1-2.62 2.52zM2.63 5.34a1.94 1.94 0 1 0-2.79 2.69 1.94 1.94 0 0 0 2.79-2.69z m-2.1 2.03a0.98 0.98 0 1 1 1.41-1.37 0.98 0.98 0 0 1-1.41 1.37z" fill-rule="evenodd"></path>
      <path d="M12.49 9.77c-0.19-0.2-0.4-0.38-0.62-0.54 1.02-1.12 0.96-1.67 1.2-2.08 0.09-0.15 0.41-0.27 0.62-0.48 0.04-0.04 0.55-0.56 0.13-1.01-0.42-0.43-0.84-0.22-0.85-0.22L12.27 6.12c-0.06 0.06-0.06 0.16 0 0.23l0.15 0.15-1.42 0.45-1.3-0.17 0.04-0.45-3.2-2.08L9.6 1.3 9.31 1l-3.13 3.02-0.03-0.02-2.49-2.33L1.99 3.28l-0.5 1.12a2.28 2.28 0 0 1 1.39 0.69 2.29 2.29 0 0 1 0.59 2.1l3 3.1a3.69 3.69 0 0 1 0.18-0.19c1.52-1.46 3.94-1.42 5.4 0.09 0.56 0.58 0.89 1.28 1.02 2.02l0.61-0.09a4.42 4.42 0 0 0-1.19-2.35z" fill-rule="evenodd"></path>
    </g>
    <g id="SvgjsG2518">
      <path
        d="M12.45 2.71a0.56 0.56 0 0 1 0.02-0.79C12.69 1.7 13.05 1.71 13.26 1.93a0.56 0.56 0 0 1-0.01 0.8c-0.22 0.22-0.58 0.21-0.8-0.02z m1.04 1.08c0.22 0.22 0.57 0.23 0.8 0.01 0.23-0.22 0.23-0.57 0.01-0.79A0.56 0.56 0 0 0 13.51 2.99c-0.22 0.21-0.23 0.57-0.02 0.8z m-6.62 9.5c0.64 0.47 1.76 0.46 2.47-0.23l5.22-5.04c0.74-0.71 0.81-1.98 0-2.82L11.08 1.6c-0.81-0.85-2.09-0.81-2.82-0.1l-5.22 5.04c-0.72 0.69-0.76 1.81-0.31 2.46L-1.42 9.76l0.94 0.97 2.92-0.51L5.63 13.53 5.03 16.44l0.93 0.97L6.87 13.29zM11.36 2.97c0.13-0.13 0.35-0.12 0.48 0.01l1.37 1.41c0.12 0.13 0.12 0.35-0.01 0.48l-0.41 0.39a0.33 0.33 0 0 1-0.47-0.01L10.95 3.84c-0.13-0.13-0.12-0.35 0-0.48l0.41-0.39zM3.79 8.58a0.9 0.9 0 0 1 0.02-1.26c0.35-0.34 0.92-0.33 1.26 0.02a0.89 0.89 0 0 1-0.02 1.26c-0.36 0.34-0.92 0.33-1.26-0.02z m3.47-3.2c-0.39-0.41-0.43-1 0.02-1.43l0.94-0.91c0.39-0.38 0.98-0.45 1.44 0.03l3.38 3.5c0.46 0.48 0.36 1.06-0.02 1.44l-0.94 0.9c-0.45 0.44-1.05 0.38-1.44-0.02l-3.38-3.51zM7.34 10.97c0.35-0.34 0.92-0.33 1.25 0.02a0.89 0.89 0 0 1-0.01 1.26c-0.36 0.34-0.92 0.33-1.27-0.02a0.89 0.89 0 0 1 0.03-1.26z"></path>
    </g>
    <g id="SvgjsG2529">
      <use xlink:href="#SvgjsG2517" transform="translate(0, 0) scale(1.1)" fill="rgba(0, 0, 0, 1)"></use>
      <use xlink:href="#SvgjsG2518" transform="translate(0, 47.300000000000004) scale(1.1)" fill="rgba(0, 0, 0, 1)"></use>
      <use xlink:href="#SvgjsG2519" transform="translate(0, 94.60000000000001) scale(1.1)" fill="rgba(0, 0, 0, 1)"></use>
      <use xlink:href="#SvgjsG2520" transform="translate(0, 141.9) scale(1.1)" fill="rgba(0, 0, 0, 1)"></use>
      <use xlink:href="#SvgjsG2517" transform="translate(0, 189.20000000000002) scale(1.1)" fill="rgba(0, 0, 0, 1)"></use>
      <use xlink:href="#SvgjsG2520" transform="translate(0, 236.50000000000003) scale(1.1)" fill="rgba(0, 0, 0, 1)"></use>
      <use xlink:href="#SvgjsG2521" transform="translate(0, 283.8) scale(1.1)" fill="rgba(0, 0, 0, 1)"></use>
      <use xlink:href="#SvgjsG2522" transform="translate(0, 331.1) scale(1.1)" fill="rgba(0, 0, 0, 1)"></use>
      <use xlink:href="#SvgjsG2523" transform="translate(0, 378.40000000000003) scale(1.1)" fill="rgba(0, 0, 0, 1)"></use>
      <use xlink:href="#SvgjsG2524" transform="translate(0, 425.70000000000005) scale(1.1)" fill="rgba(0, 0, 0, 1)"></use>
      <use xlink:href="#SvgjsG2521" transform="translate(47.300000000000004, 0) scale(1.1)" fill="rgba(0, 0, 0, 1)"></use>
      <use xlink:href="#SvgjsG2519" transform="translate(47.300000000000004, 47.300000000000004) scale(1.1)" fill="rgba(0, 0, 0, 1)"></use>
      <use xlink:href="#SvgjsG2517" transform="translate(47.300000000000004, 94.60000000000001) scale(1.1)" fill="rgba(0, 0, 0, 1)"></use>
      <use xlink:href="#SvgjsG2519" transform="translate(47.300000000000004, 141.9) scale(1.1)" fill="rgba(0, 0, 0, 1)"></use>
      <use xlink:href="#SvgjsG2518" transform="translate(47.300000000000004, 189.20000000000002) scale(1.1)" fill="rgba(0, 0, 0, 1)"></use>
      <use xlink:href="#SvgjsG2520" transform="translate(47.300000000000004, 236.50000000000003) scale(1.1)" fill="rgba(0, 0, 0, 1)"></use>
      <use xlink:href="#SvgjsG2525" transform="translate(47.300000000000004, 283.8) scale(1.1)" fill="rgba(0, 0, 0, 1)"></use>
      <use xlink:href="#SvgjsG2521" transform="translate(47.300000000000004, 331.1) scale(1.1)" fill="rgba(0, 0, 0, 1)"></use>
      <use xlink:href="#SvgjsG2520" transform="translate(47.300000000000004, 378.40000000000003) scale(1.1)" fill="rgba(0, 0, 0, 1)"></use>
      <use xlink:href="#SvgjsG2523" transform="translate(47.300000000000004, 425.70000000000005) scale(1.1)" fill="rgba(0, 0, 0, 1)"></use>
      <use xlink:href="#SvgjsG2526" transform="translate(94.60000000000001, 0) scale(1.1)" fill="rgba(0, 0, 0, 1)"></use>
      <use xlink:href="#SvgjsG2527" transform="translate(94.60000000000001, 47.300000000000004) scale(1.1)" fill="rgba(0, 0, 0, 1)"></use>
      <use xlink:href="#SvgjsG2526" transform="translate(94.60000000000001, 94.60000000000001) scale(1.1)" fill="rgba(0, 0, 0, 1)"></use>
      <use xlink:href="#SvgjsG2519" transform="translate(94.60000000000001, 141.9) scale(1.1)" fill="rgba(0, 0, 0, 1)"></use>
      <use xlink:href="#SvgjsG2528" transform="translate(94.60000000000001, 189.20000000000002) scale(1.1)" fill="rgba(0, 0, 0, 1)"></use>
      <use xlink:href="#SvgjsG2518" transform="translate(94.60000000000001, 236.50000000000003) scale(1.1)" fill="rgba(0, 0, 0, 1)"></use>
      <use xlink:href="#SvgjsG2517" transform="translate(94.60000000000001, 283.8) scale(1.1)" fill="rgba(0, 0, 0, 1)"></use>
      <use xlink:href="#SvgjsG2520" transform="translate(94.60000000000001, 331.1) scale(1.1)" fill="rgba(0, 0, 0, 1)"></use>
      <use xlink:href="#SvgjsG2520" transform="translate(94.60000000000001, 378.40000000000003) scale(1.1)" fill="rgba(0, 0, 0, 1)"></use>
      <use xlink:href="#SvgjsG2528" transform="translate(94.60000000000001, 425.70000000000005) scale(1.1)" fill="rgba(0, 0, 0, 1)"></use>
      <use xlink:href="#SvgjsG2519" transform="translate(141.9, 0) scale(1.1)" fill="rgba(0, 0, 0, 1)"></use>
      <use xlink:href="#SvgjsG2518" transform="translate(141.9, 47.300000000000004) scale(1.1)" fill="rgba(0, 0, 0, 1)"></use>
      <use xlink:href="#SvgjsG2522" transform="translate(141.9, 94.60000000000001) scale(1.1)" fill="rgba(0, 0, 0, 1)"></use>
      <use xlink:href="#SvgjsG2525" transform="translate(141.9, 141.9) scale(1.1)" fill="rgba(0, 0, 0, 1)"></use>
      <use xlink:href="#SvgjsG2524" transform="translate(141.9, 189.20000000000002) scale(1.1)" fill="rgba(0, 0, 0, 1)"></use>
      <use xlink:href="#SvgjsG2522" transform="translate(141.9, 236.50000000000003) scale(1.1)" fill="rgba(0, 0, 0, 1)"></use>
      <use xlink:href="#SvgjsG2524" transform="translate(141.9, 283.8) scale(1.1)" fill="rgba(0, 0, 0, 1)"></use>
      <use xlink:href="#SvgjsG2525" transform="translate(141.9, 331.1) scale(1.1)" fill="rgba(0, 0, 0, 1)"></use>
      <use xlink:href="#SvgjsG2527" transform="translate(141.9, 378.40000000000003) scale(1.1)" fill="rgba(0, 0, 0, 1)"></use>
      <use xlink:href="#SvgjsG2518" transform="translate(141.9, 425.70000000000005) scale(1.1)" fill="rgba(0, 0, 0, 1)"></use>
      <use xlink:href="#SvgjsG2519" transform="translate(189.20000000000002, 0) scale(1.1)" fill="rgba(0, 0, 0, 1)"></use>
      <use xlink:href="#SvgjsG2526" transform="translate(189.20000000000002, 47.300000000000004) scale(1.1)" fill="rgba(0, 0, 0, 1)"></use>
      <use xlink:href="#SvgjsG2523" transform="translate(189.20000000000002, 94.60000000000001) scale(1.1)" fill="rgba(0, 0, 0, 1)"></use>
      <use xlink:href="#SvgjsG2521" transform="translate(189.20000000000002, 141.9) scale(1.1)" fill="rgba(0, 0, 0, 1)"></use>
      <use xlink:href="#SvgjsG2528" transform="translate(189.20000000000002, 189.20000000000002) scale(1.1)" fill="rgba(0, 0, 0, 1)"></use>
      <use xlink:href="#SvgjsG2523" transform="translate(189.20000000000002, 236.50000000000003) scale(1.1)" fill="rgba(0, 0, 0, 1)"></use>
      <use xlink:href="#SvgjsG2519" transform="translate(189.20000000000002, 283.8) scale(1.1)" fill="rgba(0, 0, 0, 1)"></use>
      <use xlink:href="#SvgjsG2528" transform="translate(189.20000000000002, 331.1) scale(1.1)" fill="rgba(0, 0, 0, 1)"></use>
      <use xlink:href="#SvgjsG2528" transform="translate(189.20000000000002, 378.40000000000003) scale(1.1)" fill="rgba(0, 0, 0, 1)"></use>
      <use xlink:href="#SvgjsG2522" transform="translate(189.20000000000002, 425.70000000000005) scale(1.1)" fill="rgba(0, 0, 0, 1)"></use>
      <use xlink:href="#SvgjsG2517" transform="translate(236.50000000000003, 0) scale(1.1)" fill="rgba(0, 0, 0, 1)"></use>
      <use xlink:href="#SvgjsG2520" transform="translate(236.50000000000003, 47.300000000000004) scale(1.1)" fill="rgba(0, 0, 0, 1)"></use>
      <use xlink:href="#SvgjsG2518" transform="translate(236.50000000000003, 94.60000000000001) scale(1.1)" fill="rgba(0, 0, 0, 1)"></use>
      <use xlink:href="#SvgjsG2519" transform="translate(236.50000000000003, 141.9) scale(1.1)" fill="rgba(0, 0, 0, 1)"></use>
      <use xlink:href="#SvgjsG2517" transform="translate(236.50000000000003, 189.20000000000002) scale(1.1)" fill="rgba(0, 0, 0, 1)"></use>
      <use xlink:href="#SvgjsG2517" transform="translate(236.50000000000003, 236.50000000000003) scale(1.1)" fill="rgba(0, 0, 0, 1)"></use>
      <use xlink:href="#SvgjsG2523" transform="translate(236.50000000000003, 283.8) scale(1.1)" fill="rgba(0, 0, 0, 1)"></use>
      <use xlink:href="#SvgjsG2519" transform="translate(236.50000000000003, 331.1) scale(1.1)" fill="rgba(0, 0, 0, 1)"></use>
      <use xlink:href="#SvgjsG2528" transform="translate(236.50000000000003, 378.40000000000003) scale(1.1)" fill="rgba(0, 0, 0, 1)"></use>
      <use xlink:href="#SvgjsG2520" transform="translate(236.50000000000003, 425.70000000000005) scale(1.1)" fill="rgba(0, 0, 0, 1)"></use>
      <use xlink:href="#SvgjsG2526" transform="translate(283.8, 0) scale(1.1)" fill="rgba(0, 0, 0, 1)"></use>
      <use xlink:href="#SvgjsG2527" transform="translate(283.8, 47.300000000000004) scale(1.1)" fill="rgba(0, 0, 0, 1)"></use>
      <use xlink:href="#SvgjsG2525" transform="translate(283.8, 94.60000000000001) scale(1.1)" fill="rgba(0, 0, 0, 1)"></use>
      <use xlink:href="#SvgjsG2524" transform="translate(283.8, 141.9) scale(1.1)" fill="rgba(0, 0, 0, 1)"></use>
      <use xlink:href="#SvgjsG2525" transform="translate(283.8, 189.20000000000002) scale(1.1)" fill="rgba(0, 0, 0, 1)"></use>
      <use xlink:href="#SvgjsG2519" transform="translate(283.8, 236.50000000000003) scale(1.1)" fill="rgba(0, 0, 0, 1)"></use>
      <use xlink:href="#SvgjsG2523" transform="translate(283.8, 283.8) scale(1.1)" fill="rgba(0, 0, 0, 1)"></use>
      <use xlink:href="#SvgjsG2524" transform="translate(283.8, 331.1) scale(1.1)" fill="rgba(0, 0, 0, 1)"></use>
      <use xlink:href="#SvgjsG2521" transform="translate(283.8, 378.40000000000003) scale(1.1)" fill="rgba(0, 0, 0, 1)"></use>
      <use xlink:href="#SvgjsG2517" transform="translate(283.8, 425.70000000000005) scale(1.1)" fill="rgba(0, 0, 0, 1)"></use>
      <use xlink:href="#SvgjsG2522" transform="translate(331.1, 0) scale(1.1)" fill="rgba(0, 0, 0, 1)"></use>
      <use xlink:href="#SvgjsG2520" transform="translate(331.1, 47.300000000000004) scale(1.1)" fill="rgba(0, 0, 0, 1)"></use>
      <use xlink:href="#SvgjsG2521" transform="translate(331.1, 94.60000000000001) scale(1.1)" fill="rgba(0, 0, 0, 1)"></use>
      <use xlink:href="#SvgjsG2526" transform="translate(331.1, 141.9) scale(1.1)" fill="rgba(0, 0, 0, 1)"></use>
      <use xlink:href="#SvgjsG2521" transform="translate(331.1, 189.20000000000002) scale(1.1)" fill="rgba(0, 0, 0, 1)"></use>
      <use xlink:href="#SvgjsG2521" transform="translate(331.1, 236.50000000000003) scale(1.1)" fill="rgba(0, 0, 0, 1)"></use>
      <use xlink:href="#SvgjsG2521" transform="translate(331.1, 283.8) scale(1.1)" fill="rgba(0, 0, 0, 1)"></use>
      <use xlink:href="#SvgjsG2526" transform="translate(331.1, 331.1) scale(1.1)" fill="rgba(0, 0, 0, 1)"></use>
      <use xlink:href="#SvgjsG2527" transform="translate(331.1, 378.40000000000003) scale(1.1)" fill="rgba(0, 0, 0, 1)"></use>
      <use xlink:href="#SvgjsG2521" transform="translate(331.1, 425.70000000000005) scale(1.1)" fill="rgba(0, 0, 0, 1)"></use>
      <use xlink:href="#SvgjsG2528" transform="translate(378.40000000000003, 0) scale(1.1)" fill="rgba(0, 0, 0, 1)"></use>
      <use xlink:href="#SvgjsG2526" transform="translate(378.40000000000003, 47.300000000000004) scale(1.1)" fill="rgba(0, 0, 0, 1)"></use>
      <use xlink:href="#SvgjsG2520" transform="translate(378.40000000000003, 94.60000000000001) scale(1.1)" fill="rgba(0, 0, 0, 1)"></use>
      <use xlink:href="#SvgjsG2525" transform="translate(378.40000000000003, 141.9) scale(1.1)" fill="rgba(0, 0, 0, 1)"></use>
      <use xlink:href="#SvgjsG2522" transform="translate(378.40000000000003, 189.20000000000002) scale(1.1)" fill="rgba(0, 0, 0, 1)"></use>
      <use xlink:href="#SvgjsG2522" transform="translate(378.40000000000003, 236.50000000000003) scale(1.1)" fill="rgba(0, 0, 0, 1)"></use>
      <use xlink:href="#SvgjsG2520" transform="translate(378.40000000000003, 283.8) scale(1.1)" fill="rgba(0, 0, 0, 1)"></use>
      <use xlink:href="#SvgjsG2519" transform="translate(378.40000000000003, 331.1) scale(1.1)" fill="rgba(0, 0, 0, 1)"></use>
      <use xlink:href="#SvgjsG2523" transform="translate(378.40000000000003, 378.40000000000003) scale(1.1)" fill="rgba(0, 0, 0, 1)"></use>
      <use xlink:href="#SvgjsG2523" transform="translate(378.40000000000003, 425.70000000000005) scale(1.1)" fill="rgba(0, 0, 0, 1)"></use>
      <use xlink:href="#SvgjsG2520" transform="translate(425.70000000000005, 0) scale(1.1)" fill="rgba(0, 0, 0, 1)"></use>
      <use xlink:href="#SvgjsG2520" transform="translate(425.70000000000005, 47.300000000000004) scale(1.1)" fill="rgba(0, 0, 0, 1)"></use>
      <use xlink:href="#SvgjsG2521" transform="translate(425.70000000000005, 94.60000000000001) scale(1.1)" fill="rgba(0, 0, 0, 1)"></use>
      <use xlink:href="#SvgjsG2525" transform="translate(425.70000000000005, 141.9) scale(1.1)" fill="rgba(0, 0, 0, 1)"></use>
      <use xlink:href="#SvgjsG2526" transform="translate(425.70000000000005, 189.20000000000002) scale(1.1)" fill="rgba(0, 0, 0, 1)"></use>
      <use xlink:href="#SvgjsG2517" transform="translate(425.70000000000005, 236.50000000000003) scale(1.1)" fill="rgba(0, 0, 0, 1)"></use>
      <use xlink:href="#SvgjsG2527" transform="translate(425.70000000000005, 283.8) scale(1.1)" fill="rgba(0, 0, 0, 1)"></use>
      <use xlink:href="#SvgjsG2517" transform="translate(425.70000000000005, 331.1) scale(1.1)" fill="rgba(0, 0, 0, 1)"></use>
      <use xlink:href="#SvgjsG2526" transform="translate(425.70000000000005, 378.40000000000003) scale(1.1)" fill="rgba(0, 0, 0, 1)"></use>
      <use xlink:href="#SvgjsG2525" transform="translate(425.70000000000005, 425.70000000000005) scale(1.1)" fill="rgba(0, 0, 0, 1)"></use>
    </g>
  </defs>
</svg>
